<?xml version="1.0" standalone="no"?>
<!DOCTYPE svg PUBLIC "-//W3C//DTD SVG 20010904//EN"
 "http://www.w3.org/TR/2001/REC-SVG-20010904/DTD/svg10.dtd">
<svg version="1.0" xmlns="http://www.w3.org/2000/svg"
 width="160.000000pt" height="339.000000pt" viewBox="0 0 160.000000 339.000000"
 preserveAspectRatio="xMidYMid meet">

<g transform="translate(0.000000,339.000000) scale(0.100000,-0.100000)"
fill="#000000" stroke="none">
<path d="M1191 3164 c90 -90 165 -164 166 -164 2 0 3 74 3 165 l0 166 -166 -2
-166 -2 163 -163z"/>
<path d="M535 3250 c-72 -29 -171 -107 -227 -181 -26 -35 -48 -67 -48 -71 0
-4 54 25 119 64 76 46 125 82 137 102 9 16 33 47 52 68 39 43 36 45 -33 18z"/>
<path d="M313 2853 l-113 -68 0 -67 c0 -37 3 -69 8 -71 9 -6 257 139 257 150
-2 26 -28 123 -33 123 -4 0 -58 -30 -119 -67z"/>
<path d="M1503 1615 c0 -8 4 -12 9 -9 5 3 6 10 3 15 -9 13 -12 11 -12 -6z"/>
<path d="M1475 1600 c-3 -5 -1 -10 4 -10 6 0 11 5 11 10 0 6 -2 10 -4 10 -3 0
-8 -4 -11 -10z"/>
<path d="M1435 1580 c-4 -6 -11 -8 -16 -5 -5 4 -9 2 -9 -4 0 -19 16 -19 28 0
7 10 10 19 8 19 -3 0 -8 -5 -11 -10z"/>
<path d="M1505 1581 c-3 -5 -2 -12 3 -15 5 -3 9 1 9 9 0 17 -3 19 -12 6z"/>
<path d="M1469 1553 c-13 -16 -12 -17 4 -4 9 7 17 15 17 17 0 8 -8 3 -21 -13z"/>
<path d="M1484 1536 c-15 -11 -22 -12 -34 -3 -13 10 -13 10 -2 -4 16 -21 54
-19 58 4 3 21 3 21 -22 3z"/>
<path d="M1336 1531 c-4 -5 0 -12 6 -15 7 -4 3 -4 -9 -2 -15 2 -20 0 -16 -10
2 -7 12 -10 21 -6 14 5 15 3 5 -9 -10 -13 -10 -16 0 -16 8 0 13 13 13 34 0 32
-9 42 -20 24z"/>
<path d="M1286 1502 c-3 -5 1 -9 9 -9 8 0 12 4 9 9 -3 4 -7 8 -9 8 -2 0 -6 -4
-9 -8z"/>
<path d="M1393 1436 c1 -6 -3 -10 -10 -11 -6 0 -15 -3 -19 -7 -3 -4 3 -6 15
-3 12 2 28 11 36 19 14 13 13 15 -4 13 -11 0 -19 -6 -18 -11z"/>
<path d="M1288 1382 c6 -2 9 -8 6 -14 -5 -8 29 5 44 17 1 1 -13 2 -30 2 -18 0
-27 -2 -20 -5z"/>
<path d="M1263 1365 c0 -8 4 -12 9 -9 5 3 6 10 3 15 -9 13 -12 11 -12 -6z"/>
<path d="M1195 270 l-159 -160 162 0 162 0 0 160 c0 88 -1 160 -3 160 -1 0
-74 -72 -162 -160z"/>
<path d="M623 165 c0 -8 4 -12 9 -9 5 3 6 10 3 15 -9 13 -12 11 -12 -6z"/>
<path d="M651 156 c-9 -11 -9 -16 1 -22 7 -4 10 -4 6 1 -4 4 -3 14 3 22 6 7 9
13 6 13 -2 0 -10 -6 -16 -14z"/>
</g>
</svg>
